<svg width="236" height="235" viewBox="0 0 236 235" fill="none" xmlns="http://www.w3.org/2000/svg">
<path d="M220.274 118.399C217.954 138.046 208.984 160.889 191.068 171.382C163.998 187.241 166.264 211.632 113.427 222.236C105.19 223.89 97.3717 224.586 89.9998 224.448C86.0367 224.375 82.2011 224.056 78.5012 223.511C44.9207 218.606 22.3221 195.264 14.0313 167.087C3.12074 130.03 24.9062 105.77 39.3465 91.1523C53.7867 76.5353 64.3627 30.9904 116.223 20.1578C124.13 18.5095 132.217 17.6687 140.301 17.8703C158.752 18.323 178.878 24.3822 192.804 37.028C193.85 37.9784 194.867 38.9635 195.858 39.9787C215.214 59.846 223.439 91.6148 220.274 118.399Z" fill="#FFAD01"/>
<path opacity="0.7" d="M220.274 118.399C217.954 138.046 208.984 160.889 191.068 171.382C163.998 187.241 166.264 211.632 113.427 222.236C105.19 223.89 97.3717 224.586 89.9998 224.448C86.0367 224.375 82.2011 224.056 78.5012 223.511C44.9207 218.606 22.3221 195.264 14.0313 167.087C3.12074 130.03 24.9062 105.77 39.3465 91.1523C53.7867 76.5353 64.3627 30.9904 116.223 20.1578C124.13 18.5095 132.217 17.6687 140.301 17.8703C158.752 18.323 178.878 24.3822 192.804 37.028C193.85 37.9784 194.867 38.9635 195.858 39.9787C215.214 59.846 223.439 91.6148 220.274 118.399Z" fill="white"/>
<path d="M211.885 175.773H179.331V180.333H211.885V175.773Z" fill="#232E34" stroke="#232E34" stroke-width="0.47" stroke-miterlimit="10"/>
<path d="M176.283 173.649H171.978V179.265H176.283V173.649Z" fill="#FFAD01" stroke="#232E34" stroke-width="0.47" stroke-miterlimit="10"/>
<path d="M195.937 173.649H191.632V179.265H195.937V173.649Z" fill="#FFAD01" stroke="#232E34" stroke-width="0.47" stroke-miterlimit="10"/>
<path d="M215.111 181.698H168.983V206.78H215.111V181.698Z" fill="white" stroke="#232E34" stroke-width="0.47" stroke-miterlimit="10"/>
<path d="M215.116 181.698H198.183V206.78H215.116V181.698Z" fill="white" stroke="#232E34" stroke-width="0.47" stroke-miterlimit="10"/>
<path d="M216.146 178.394H167.947V182.954H216.146V178.394Z" fill="#232E34" stroke="#232E34" stroke-width="0.47" stroke-miterlimit="10"/>
<path d="M216.146 206.78H167.947V209.06H216.146V206.78Z" fill="#232E34" stroke="#232E34" stroke-width="0.47" stroke-miterlimit="10"/>
<path d="M175.721 187.313H171.229V188.623H175.721V187.313Z" fill="#232E34" stroke="#232E34" stroke-width="0.47" stroke-miterlimit="10"/>
<path d="M196.124 187.313H191.632V188.623H196.124V187.313Z" fill="#232E34" stroke="#232E34" stroke-width="0.47" stroke-miterlimit="10"/>
<path d="M194.533 190.214V185.722H193.222V190.214H194.533Z" fill="#232E34" stroke="#232E34" stroke-width="0.47" stroke-miterlimit="10"/>
<path d="M154.985 208.544H91.2344C90.3122 208.544 89.5649 207.796 89.5649 206.874V185.794C89.5649 184.872 90.3122 184.124 91.2344 184.124H154.985C155.907 184.124 156.655 184.872 156.655 185.794V206.874C156.655 207.796 155.907 208.544 154.985 208.544Z" fill="#919DA3" stroke="#232E34" stroke-width="0.47" stroke-miterlimit="10"/>
<path d="M146.593 184.126L122.177 208.543H89.4978C88.5719 208.543 87.8246 207.796 87.8246 206.874V185.795C87.8246 184.874 88.5719 184.126 89.4978 184.126H146.593Z" fill="#232E34" stroke="#232E34" stroke-width="0.47" stroke-miterlimit="10"/>
<path d="M154.917 190.481V206.874C154.917 207.795 154.17 208.543 153.249 208.543H136.86L154.917 190.481Z" fill="#232E34" stroke="#232E34" stroke-width="0.47" stroke-miterlimit="10"/>
<path d="M152.72 186.768V206.108H118.68L117.754 204.585H97.0178L96.0919 206.108H90.0242V186.768H95.9133L97.0178 188.591H117.754L118.859 186.768H152.72Z" fill="#919DA3" stroke="#232E34" stroke-width="0.47" stroke-miterlimit="10"/>
<path d="M116.816 192.96H98.368V200.085H116.816V192.96Z" fill="#919DA3" stroke="#232E34" stroke-width="0.47" stroke-miterlimit="10"/>
<path d="M117.754 204.585L118.68 206.108H96.0919L97.0178 204.585H117.754Z" fill="#232E34" stroke="#232E34" stroke-width="0.47" stroke-miterlimit="10"/>
<path d="M97.0178 188.591L95.9133 186.768H118.859L117.754 188.591H97.0178Z" fill="#232E34" stroke="#232E34" stroke-width="0.47" stroke-miterlimit="10"/>
<path d="M107.385 202.967C110.991 202.967 113.913 200.045 113.913 196.439C113.913 192.834 110.991 189.911 107.385 189.911C103.78 189.911 100.858 192.834 100.858 196.439C100.858 200.045 103.78 202.967 107.385 202.967Z" fill="#FFAD01" stroke="#232E34" stroke-width="0.47" stroke-miterlimit="10"/>
<path d="M108.59 201.532C111.405 200.87 113.151 198.052 112.49 195.236C111.829 192.421 109.01 190.675 106.195 191.337C103.38 191.998 101.634 194.816 102.295 197.632C102.956 200.447 105.775 202.193 108.59 201.532Z" fill="#232E34" stroke="#232E34" stroke-width="0.47" stroke-miterlimit="10"/>
<path d="M117.754 204.585H97.0178L96.0919 206.108H118.68L117.754 204.585ZM95.9133 186.768L97.0178 188.591H117.754L118.859 186.768H95.9133Z" fill="#232E34" stroke="#232E34" stroke-width="0.47" stroke-miterlimit="10"/>
<path d="M150.558 191.79H117.905V201.056H150.558V191.79Z" fill="#919DA3" stroke="#232E34" stroke-width="0.47" stroke-miterlimit="10"/>
<path d="M120.112 192.01V193.996" stroke="#232E34" stroke-width="0.47" stroke-miterlimit="10"/>
<path d="M123.752 192.01V193.996" stroke="#232E34" stroke-width="0.47" stroke-miterlimit="10"/>
<path d="M127.392 192.01V193.996" stroke="#232E34" stroke-width="0.47" stroke-miterlimit="10"/>
<path d="M131.033 192.01V193.996" stroke="#232E34" stroke-width="0.47" stroke-miterlimit="10"/>
<path d="M134.673 192.01V193.996" stroke="#232E34" stroke-width="0.47" stroke-miterlimit="10"/>
<path d="M138.313 192.01V193.996" stroke="#232E34" stroke-width="0.47" stroke-miterlimit="10"/>
<path d="M141.954 192.01V193.996" stroke="#232E34" stroke-width="0.47" stroke-miterlimit="10"/>
<path d="M145.594 192.01V193.996" stroke="#232E34" stroke-width="0.47" stroke-miterlimit="10"/>
<path d="M149.234 192.01V193.996" stroke="#232E34" stroke-width="0.47" stroke-miterlimit="10"/>
<path d="M120.112 198.96V200.946" stroke="#232E34" stroke-width="0.47" stroke-miterlimit="10"/>
<path d="M123.752 198.96V200.946" stroke="#232E34" stroke-width="0.47" stroke-miterlimit="10"/>
<path d="M127.392 198.96V200.946" stroke="#232E34" stroke-width="0.47" stroke-miterlimit="10"/>
<path d="M131.033 198.96V200.946" stroke="#232E34" stroke-width="0.47" stroke-miterlimit="10"/>
<path d="M134.673 198.96V200.946" stroke="#232E34" stroke-width="0.47" stroke-miterlimit="10"/>
<path d="M138.313 198.96V200.946" stroke="#232E34" stroke-width="0.47" stroke-miterlimit="10"/>
<path d="M141.954 198.96V200.946" stroke="#232E34" stroke-width="0.47" stroke-miterlimit="10"/>
<path d="M145.594 198.96V200.946" stroke="#232E34" stroke-width="0.47" stroke-miterlimit="10"/>
<path d="M149.234 198.96V200.946" stroke="#232E34" stroke-width="0.47" stroke-miterlimit="10"/>
<path d="M91.5315 190.422V193.635L97.3586 194.012V191.707L91.5315 190.422Z" fill="#FFAD01" stroke="#232E34" stroke-width="0.47" stroke-miterlimit="10"/>
<path d="M91.5315 201.989V198.776L97.3586 198.005V200.704L91.5315 201.989Z" fill="#FFAD01" stroke="#232E34" stroke-width="0.47" stroke-miterlimit="10"/>
<path d="M97.4779 197.094L91.3562 198.071V194.519L97.4779 195.027V197.094Z" fill="#FFAD01" stroke="#232E34" stroke-width="0.47" stroke-miterlimit="10"/>
<path d="M149.518 189.624C150 189.624 150.391 189.233 150.391 188.75C150.391 188.268 150 187.876 149.518 187.876C149.035 187.876 148.644 188.268 148.644 188.75C148.644 189.233 149.035 189.624 149.518 189.624Z" fill="#FFAD01" stroke="#232E34" stroke-width="0.47" stroke-miterlimit="10"/>
<path d="M153.447 208.544H89.3573C88.4352 208.544 87.6879 207.796 87.6879 206.874V185.794C87.6879 184.872 88.4352 184.124 89.3573 184.124H153.447C154.369 184.124 155.116 184.872 155.116 185.794V206.874C155.116 207.796 154.369 208.544 153.447 208.544Z" stroke="#232E34" stroke-width="0.47" stroke-miterlimit="10"/>
<path d="M30.5744 212.357C40.6921 212.357 48.8941 204.155 48.8941 194.038C48.8941 183.92 40.6921 175.718 30.5744 175.718C20.4568 175.718 12.2548 183.92 12.2548 194.038C12.2548 204.155 20.4568 212.357 30.5744 212.357Z" fill="#FFAD01" stroke="#232E34" stroke-width="0.47" stroke-miterlimit="10"/>
<path d="M29.7712 212.357C39.8889 212.357 48.0909 204.155 48.0909 194.038C48.0909 183.92 39.8889 175.718 29.7712 175.718C19.6535 175.718 11.4515 183.92 11.4515 194.038C11.4515 204.155 19.6535 212.357 29.7712 212.357Z" fill="#FFAD01" stroke="#232E34" stroke-width="0.47" stroke-miterlimit="10"/>
<path d="M33.8025 208.076C41.561 205.85 46.0465 197.757 43.8212 189.998C41.5958 182.24 33.5023 177.754 25.7437 179.98C17.9852 182.205 13.4997 190.298 15.7251 198.057C17.9504 205.815 26.044 210.301 33.8025 208.076Z" fill="#232E34" stroke="#232E34" stroke-width="0.47" stroke-miterlimit="10"/>
<path d="M29.7711 197.334C31.5915 197.334 33.0672 195.858 33.0672 194.038C33.0672 192.217 31.5915 190.741 29.7711 190.741C27.9507 190.741 26.475 192.217 26.475 194.038C26.475 195.858 27.9507 197.334 29.7711 197.334Z" fill="#FFAD01" stroke="#232E34" stroke-width="0.47" stroke-miterlimit="10"/>
<path d="M31.8931 194.038C31.8931 192.865 30.9428 191.915 29.7706 191.915C28.5984 191.915 27.6481 192.865 27.6481 194.038C27.6481 195.21 28.5984 196.16 29.7706 196.16C30.9428 196.16 31.8931 195.21 31.8931 194.038Z" fill="white" stroke="#232E34" stroke-width="0.47" stroke-miterlimit="10"/>
<path d="M29.7711 191.915V196.16" stroke="#232E34" stroke-width="0.47" stroke-miterlimit="10"/>
<path d="M27.6487 194.038H31.8933" stroke="#232E34" stroke-width="0.47" stroke-miterlimit="10"/>
<path d="M56.0639 212.357C66.1816 212.357 74.3836 204.155 74.3836 194.038C74.3836 183.92 66.1816 175.718 56.0639 175.718C45.9463 175.718 37.7443 183.92 37.7443 194.038C37.7443 204.155 45.9463 212.357 56.0639 212.357Z" fill="#FFAD01" stroke="#232E34" stroke-width="0.47" stroke-miterlimit="10"/>
<path d="M55.2601 212.357C65.3778 212.357 73.5798 204.155 73.5798 194.038C73.5798 183.92 65.3778 175.718 55.2601 175.718C45.1424 175.718 36.9404 183.92 36.9404 194.038C36.9404 204.155 45.1424 212.357 55.2601 212.357Z" fill="#FFAD01" stroke="#232E34" stroke-width="0.47" stroke-miterlimit="10"/>
<path d="M65.5929 204.371C71.3004 198.663 71.3004 189.41 65.5929 183.702C59.8854 177.995 50.6317 177.995 44.9242 183.702C39.2167 189.41 39.2167 198.663 44.9242 204.371C50.6317 210.078 59.8854 210.078 65.5929 204.371Z" fill="#232E34" stroke="#232E34" stroke-width="0.47" stroke-miterlimit="10"/>
<path d="M55.2602 197.334C57.0806 197.334 58.5563 195.858 58.5563 194.038C58.5563 192.217 57.0806 190.741 55.2602 190.741C53.4398 190.741 51.9641 192.217 51.9641 194.038C51.9641 195.858 53.4398 197.334 55.2602 197.334Z" fill="#FFAD01" stroke="#232E34" stroke-width="0.47" stroke-miterlimit="10"/>
<path d="M57.3827 194.038C57.3827 192.865 56.4324 191.915 55.2602 191.915C54.088 191.915 53.1377 192.865 53.1377 194.038C53.1377 195.21 54.088 196.16 55.2602 196.16C56.4324 196.16 57.3827 195.21 57.3827 194.038Z" fill="white" stroke="#232E34" stroke-width="0.47" stroke-miterlimit="10"/>
<path d="M55.2601 191.915V196.16" stroke="#232E34" stroke-width="0.47" stroke-miterlimit="10"/>
<path d="M53.1377 194.038H57.3827" stroke="#232E34" stroke-width="0.47" stroke-miterlimit="10"/>
<path d="M201.271 155.713C201.454 150.045 165.074 144.272 120.014 142.821C74.9541 141.369 38.278 144.788 38.0953 150.457C37.9127 156.125 74.2928 161.898 119.352 163.349C164.412 164.801 201.088 161.382 201.271 155.713Z" fill="#232E34" stroke="#232E34" stroke-width="0.47" stroke-miterlimit="10"/>
<path d="M40.1624 135.478C40.1624 135.478 41.155 137.628 41.8633 138.361C42.5711 139.094 55.3721 142.261 55.3721 142.261L96.8449 151.339L101.871 150.801L119.434 151.363C119.434 151.363 122.939 142.79 119.112 134.344C115.285 125.898 96.1497 122.599 90.7391 124.314C85.3284 126.03 72.6596 131.573 63.5538 128.537C54.448 125.502 47.1898 119.564 44.1546 120.356C41.1193 121.148 39.6675 126.03 39.6675 128.142C39.6675 130.253 40.1624 135.478 40.1624 135.478Z" fill="#232E34" stroke="#232E34" stroke-width="0.47" stroke-miterlimit="10"/>
<path d="M129.323 147.222C128.961 138.505 123.13 131.424 116.298 131.406H108.892L109.022 134.529C106.128 137.4 104.369 141.987 104.583 147.159C104.798 152.331 106.938 156.927 110.07 159.814L110.201 162.975H117.608C124.439 162.993 129.684 155.94 129.323 147.222Z" fill="#232E34" stroke="#232E34" stroke-width="0.47" stroke-miterlimit="10"/>
<path d="M111.277 162.917C118.05 162.168 122.762 154.52 121.801 145.835C120.84 137.15 114.57 130.717 107.796 131.467C101.023 132.217 96.3114 139.865 97.2726 148.549C98.2338 157.234 104.504 163.667 111.277 162.917Z" fill="#919DA3" stroke="#232E34" stroke-width="0.47" stroke-miterlimit="10"/>
<path d="M119.116 152.563L119.117 152.562C119.238 152.171 119.344 151.771 119.434 151.362L119.435 151.361C119.525 150.952 119.6 150.533 119.658 150.107C119.784 149.177 119.833 148.211 119.792 147.217C119.704 145.1 119.225 143.102 118.451 141.331C118.444 141.315 118.437 141.299 118.43 141.283C118.257 140.891 118.07 140.511 117.869 140.143C117.857 140.12 117.844 140.098 117.832 140.075C117.631 139.71 117.416 139.359 117.19 139.021C117.178 139.003 117.166 138.984 117.154 138.966C115.153 136.016 112.212 134.126 109.004 134.118C106.257 134.111 103.822 135.487 102.075 137.728C101.96 137.876 101.847 138.028 101.738 138.184L101.737 138.185C101.628 138.34 101.522 138.499 101.419 138.661C101.418 138.662 101.418 138.663 101.417 138.665C101.316 138.824 101.218 138.988 101.123 139.154C101.121 139.159 101.118 139.163 101.116 139.167C101.023 139.331 100.934 139.497 100.847 139.666C100.843 139.675 100.839 139.683 100.835 139.691C100.751 139.856 100.671 140.023 100.593 140.193C100.587 140.207 100.58 140.22 100.574 140.234C100.5 140.399 100.429 140.567 100.36 140.737C100.352 140.757 100.344 140.776 100.336 140.796C100.271 140.961 100.209 141.128 100.149 141.297C100.14 141.323 100.13 141.348 100.121 141.374C100.065 141.537 100.012 141.702 99.9605 141.869C99.9501 141.902 99.9393 141.935 99.9295 141.969C99.8815 142.128 99.8373 142.291 99.7946 142.454C99.7838 142.496 99.772 142.536 99.7612 142.578C99.7217 142.735 99.6855 142.893 99.6512 143.052C99.6404 143.102 99.6282 143.151 99.6178 143.201C99.5864 143.354 99.5582 143.508 99.5309 143.663C99.5206 143.721 99.5093 143.778 99.4994 143.836C99.475 143.985 99.4543 144.137 99.4336 144.288C99.4247 144.353 99.4143 144.417 99.4063 144.483C99.3885 144.63 99.3749 144.778 99.3608 144.927C99.3542 144.998 99.3457 145.068 99.3396 145.14C99.3279 145.287 99.3203 145.435 99.3123 145.584C99.3086 145.658 99.3025 145.731 99.2997 145.806C99.2935 145.963 99.2921 146.121 99.2903 146.279C99.2893 146.347 99.2865 146.413 99.2865 146.481C99.287 146.707 99.2912 146.935 99.3011 147.164C99.3123 147.442 99.333 147.716 99.3579 147.99C99.364 148.056 99.3711 148.121 99.3777 148.186C99.4016 148.421 99.4303 148.655 99.4637 148.887C99.4689 148.922 99.4731 148.958 99.4787 148.993C99.5657 149.568 99.6818 150.129 99.8237 150.677V150.678C100.531 153.401 101.895 155.767 103.661 157.468C103.683 157.489 103.705 157.51 103.727 157.531C103.943 157.736 104.165 157.931 104.393 158.116C104.408 158.129 104.424 158.14 104.439 158.153C106.096 159.481 108.037 160.259 110.089 160.264C112.154 160.269 114.043 159.492 115.596 158.154H115.596C117.175 156.794 118.404 154.855 119.116 152.563Z" fill="white" stroke="#232E34" stroke-width="0.47" stroke-miterlimit="10"/>
<path d="M118.619 147.614C118.557 146.093 118.253 144.644 117.757 143.327L113.687 145.877C113.863 146.418 113.975 146.998 114 147.605C114.004 147.692 114 147.777 114 147.863L118.623 148.615C118.633 148.285 118.633 147.952 118.619 147.614Z" fill="#232E34" stroke="#232E34" stroke-width="0.47" stroke-miterlimit="10"/>
<path d="M111.406 142.937C111.829 143.168 112.217 143.487 112.559 143.872L115.425 139.462C114.43 138.373 113.253 137.551 111.973 137.082L111.406 142.937Z" fill="#232E34" stroke="#232E34" stroke-width="0.47" stroke-miterlimit="10"/>
<path d="M113.419 150.476C113.212 150.892 112.955 151.262 112.658 151.576L115.011 156.843C116.139 155.898 117.06 154.606 117.692 153.081L113.419 150.476Z" fill="#232E34" stroke="#232E34" stroke-width="0.47" stroke-miterlimit="10"/>
<path d="M106.493 144.862L102.343 141.975C101.734 143.394 101.381 145.02 101.351 146.761L105.991 146.893C106.041 146.154 106.216 145.465 106.493 144.862Z" fill="#232E34" stroke="#232E34" stroke-width="0.47" stroke-miterlimit="10"/>
<path d="M107.905 143.107C108.244 142.869 108.617 142.697 109.014 142.598L108.334 136.745C106.866 137.005 105.538 137.74 104.443 138.827L107.905 143.107Z" fill="#232E34" stroke="#232E34" stroke-width="0.47" stroke-miterlimit="10"/>
<path d="M110.639 152.659C110.495 152.679 110.348 152.691 110.199 152.69C109.776 152.689 109.365 152.604 108.975 152.449L106.7 157.494C107.849 158.172 109.117 158.554 110.44 158.557C110.802 158.557 111.155 158.527 111.503 158.473L110.639 152.659Z" fill="#232E34" stroke="#232E34" stroke-width="0.47" stroke-miterlimit="10"/>
<path d="M106.46 149.773L101.87 150.8C102.345 152.478 103.121 153.983 104.11 155.213L107.055 150.867C106.822 150.536 106.624 150.168 106.46 149.773Z" fill="#232E34" stroke="#232E34" stroke-width="0.47" stroke-miterlimit="10"/>
<path d="M59.8628 138.409C59.6932 131.105 56.9568 125.171 53.7514 125.156H46.363L46.9773 151.608H54.3657C57.5716 151.623 60.0325 145.714 59.8628 138.409Z" fill="#232E34" stroke="#232E34" stroke-width="0.47" stroke-miterlimit="10"/>
<path d="M52.474 138.409C52.6437 145.714 50.1827 151.623 46.9773 151.608C43.7719 151.594 41.0356 145.66 40.8659 138.356C40.6963 131.051 43.1572 125.142 46.3626 125.156C49.5685 125.171 52.3043 131.105 52.474 138.409Z" fill="#919DA3" stroke="#232E34" stroke-width="0.47" stroke-miterlimit="10"/>
<path d="M51.1603 142.884C51.1603 142.883 51.1603 142.883 51.1603 142.883C51.2172 142.556 51.267 142.221 51.3093 141.878C51.3093 141.878 51.3093 141.877 51.3093 141.877C51.3516 141.534 51.3868 141.183 51.4136 140.826C51.4729 140.046 51.4959 139.237 51.4766 138.404C51.4353 136.63 51.2106 134.956 50.8478 133.472C50.8445 133.459 50.8412 133.446 50.8379 133.432C50.757 133.104 50.6692 132.785 50.5747 132.477C50.569 132.458 50.5634 132.438 50.5573 132.42C50.4628 132.115 50.3622 131.82 50.256 131.537C50.2504 131.522 50.2447 131.506 50.2391 131.491C49.3005 129.019 47.9206 127.435 46.4152 127.429C45.126 127.423 43.9834 128.576 43.1642 130.454C43.1097 130.578 43.057 130.706 43.0058 130.836C42.9546 130.966 42.9048 131.099 42.8568 131.235C42.8563 131.236 42.8559 131.237 42.8559 131.239C42.8084 131.372 42.7623 131.509 42.7182 131.649C42.7168 131.653 42.7158 131.656 42.7144 131.66C42.6712 131.796 42.6289 131.936 42.5884 132.078C42.5866 132.085 42.5847 132.091 42.5823 132.098C42.5433 132.236 42.5053 132.377 42.4691 132.52C42.4662 132.531 42.463 132.542 42.4601 132.554C42.4254 132.692 42.392 132.832 42.3596 132.975C42.3558 132.991 42.352 133.008 42.3483 133.024C42.3177 133.162 42.2886 133.302 42.2604 133.444C42.2562 133.465 42.2515 133.487 42.2472 133.508C42.2209 133.644 42.1955 133.783 42.1716 133.923C42.1669 133.951 42.1617 133.978 42.157 134.006C42.1344 134.14 42.1137 134.276 42.0935 134.413C42.0884 134.448 42.0827 134.482 42.078 134.517C42.0597 134.648 42.0428 134.781 42.0263 134.915C42.0212 134.957 42.0155 134.998 42.0108 135.039C41.9958 135.167 41.9826 135.297 41.9699 135.427C41.9652 135.475 41.9596 135.523 41.9554 135.572C41.9441 135.697 41.9342 135.824 41.9248 135.951C41.9206 136.005 41.9159 136.059 41.9121 136.114C41.9037 136.237 41.8971 136.362 41.8905 136.487C41.8872 136.546 41.8834 136.605 41.8806 136.665C41.875 136.788 41.8717 136.912 41.8679 137.037C41.8661 137.099 41.8632 137.161 41.8618 137.224C41.859 137.355 41.8581 137.487 41.8576 137.62C41.8571 137.676 41.8557 137.732 41.8557 137.789C41.8557 137.978 41.8581 138.169 41.8623 138.361C41.8675 138.594 41.8773 138.824 41.8891 139.053C41.8919 139.108 41.8952 139.163 41.8985 139.218C41.9098 139.415 41.9229 139.61 41.9389 139.804C41.9413 139.834 41.9436 139.864 41.946 139.894C41.9868 140.375 42.0409 140.845 42.1076 141.305C42.4395 143.586 43.0791 145.57 43.9082 146.994C43.9185 147.012 43.9289 147.03 43.9388 147.047C44.0403 147.219 44.1446 147.383 44.2513 147.537C44.2584 147.548 44.2659 147.558 44.2734 147.568C45.0508 148.682 45.9616 149.333 46.9242 149.337C47.8933 149.342 48.7793 148.69 49.5083 147.569C50.2494 146.43 50.8261 144.805 51.1603 142.884Z" fill="white" stroke="#232E34" stroke-width="0.47" stroke-miterlimit="10"/>
<path d="M200.649 142.171C200.288 133.454 194.456 126.373 187.625 126.355H180.219C173.387 126.338 168.142 133.39 168.503 142.108C168.865 150.825 174.697 157.906 181.528 157.924H188.934C195.766 157.941 201.011 150.889 200.649 142.171Z" fill="#232E34" stroke="#232E34" stroke-width="0.47" stroke-miterlimit="10"/>
<path d="M62.2284 87.7598C62.2284 87.7598 58.9186 88.7252 58.5046 89.6906C58.091 90.6559 57.8151 91.3454 57.8151 91.3454L47.8854 105.826C47.8854 105.826 44.2998 105.55 43.1962 108.585C42.0926 111.619 42.5067 115.756 42.5067 115.756C42.5067 115.756 39.8865 122.238 39.7483 127.065C39.6101 131.892 40.1619 135.477 40.1619 135.477C40.1619 135.477 39.4724 126.651 41.5409 123.893C43.6098 121.134 47.8849 123.203 49.5398 128.168C51.1947 133.133 53.1254 142.373 53.1254 142.373L96.8439 151.338C96.8439 151.338 94.6372 139.753 97.5334 133.133C100.43 126.513 113.945 126.927 116.427 138.925C118.91 150.924 118.082 153.131 118.082 153.131C118.082 153.131 127.322 155.061 155.457 154.648C183.591 154.234 199.037 150.924 203.175 149.821C203.175 149.821 204.14 144.718 204.416 141.684C204.692 138.65 203.588 136.581 203.588 136.581C203.588 136.581 203.313 131.065 202.623 129.134C201.934 127.203 199.865 124.307 199.865 124.307C199.865 124.307 197.796 119.48 194.348 116.446C190.9 113.411 185.246 110.378 183.867 109.688C182.488 108.999 180.695 108.585 178.074 106.792C175.454 104.999 159.18 93.6903 154.078 90.6559C148.975 87.6221 137.942 86.1049 135.735 85.6913C133.528 85.2777 108.152 83.4847 99.326 83.4847C90.4998 83.4847 72.2963 83.8983 62.2284 87.7598Z" fill="#FFAD01" stroke="#232E34" stroke-width="0.47" stroke-miterlimit="10"/>
<path opacity="0.15" d="M204.417 141.684C204.693 138.649 203.589 136.581 203.589 136.581C203.589 136.581 203.501 134.816 203.299 132.933C186.043 138.025 155.166 138.368 146.554 137.608C136.662 136.736 119.112 134.343 118.333 131.499C117.555 128.655 110.769 122.189 106.114 120.443C102.123 118.947 55.8128 112.534 42.6632 110.733C42.2599 113.266 42.5057 115.756 42.5057 115.756C42.5057 115.756 39.8855 122.238 39.7473 127.065C39.6096 131.892 40.1609 135.478 40.1609 135.478C40.1609 135.478 39.4714 126.651 41.5399 123.893C43.6088 121.135 47.8839 123.204 49.5388 128.168C51.1937 133.134 53.1244 142.374 53.1244 142.374L96.8429 151.338C96.8429 151.338 94.6363 139.753 97.5324 133.134C100.429 126.514 113.944 126.928 116.426 138.926C118.909 150.924 118.081 153.131 118.081 153.131C118.081 153.131 127.321 155.062 155.456 154.648C183.59 154.235 199.036 150.924 203.174 149.821C203.176 149.821 204.141 144.718 204.417 141.684Z" fill="black"/>
<path d="M92.4315 92.1731C86.8836 88.1931 82.0745 87.5882 79.8477 87.4068C77.7073 91.2472 74.2133 98.5134 73.5055 106.048C85.2386 107.878 98.3614 109.964 98.3614 109.964C98.3614 109.964 101.395 111.067 102.499 109.964C102.499 109.964 103.051 109.55 103.326 108.861C103.602 108.171 98.7755 96.7241 92.4315 92.1731Z" fill="white" stroke="#232E34" stroke-width="0.47" stroke-miterlimit="10"/>
<path d="M76.0694 87.3941C73.3735 87.5492 69.5806 87.9482 66.6412 88.587C63.4692 89.2765 62.3661 89.4146 61.8143 89.9659C61.2626 90.5177 55.8839 97.2754 53.9531 102.102C53.9531 102.102 54.229 103.344 55.4703 103.344C55.9215 103.344 61.7142 104.219 68.9034 105.332C70.1061 101.053 72.5252 93.513 76.0694 87.3941Z" fill="white" stroke="#232E34" stroke-width="0.47" stroke-miterlimit="10"/>
<path d="M58.5497 103.558C58.5497 103.558 60.8752 94.5015 65.6481 89.1167" stroke="#232E34" stroke-width="0.47" stroke-miterlimit="10"/>
<path d="M73.6297 112.554L69.7066 111.846C69.7066 111.846 68.7464 112.151 69.0373 113.112C69.3278 114.072 69.8476 113.967 69.8476 113.967L73.1141 114.493C73.1141 114.493 73.8915 114.577 74.0579 113.802C74.2238 113.027 74.4442 112.927 73.6297 112.554Z" stroke="#232E34" stroke-width="0.47" stroke-miterlimit="10"/>
<path d="M53.7947 109.136L50.7994 108.561C50.7994 108.561 50.0662 108.809 50.288 109.589C50.5099 110.369 50.9065 110.284 50.9065 110.284L53.4004 110.711C53.4004 110.711 53.9935 110.779 54.1209 110.15C54.2482 109.521 54.4165 109.439 53.7947 109.136Z" stroke="#232E34" stroke-width="0.47" stroke-miterlimit="10"/>
<path d="M77.7906 86.9683C77.7906 86.9683 72.1976 97.369 71.2167 106.003" stroke="#232E34" stroke-width="0.47" stroke-miterlimit="10"/>
<path d="M69.941 107.77C69.941 107.77 67.3899 112.087 67.2917 113.559C67.1934 115.031 67.4881 132.692 67.9783 135.93" stroke="#232E34" stroke-width="0.47" stroke-miterlimit="10"/>
<path d="M97.7087 98.1543C97.7087 98.1543 95.7465 103.845 95.1576 106.887" stroke="#232E34" stroke-width="0.47" stroke-miterlimit="10"/>
<path d="M96.9238 113.951C96.9238 113.951 94.765 121.114 94.6668 126.511C94.5686 131.907 94.4708 142.014 94.4708 142.014" stroke="#232E34" stroke-width="0.47" stroke-miterlimit="10"/>
<path d="M53.6533 104.041C53.6533 104.041 49.0417 108.26 48.6492 109.634C48.2568 111.008 48.7475 122.782 48.7475 122.782" stroke="#232E34" stroke-width="0.47" stroke-miterlimit="10"/>
<path d="M54.5364 136.126C54.5364 136.126 55.223 138.088 56.6951 138.579C58.1667 139.07 93.8824 145.938 93.8824 145.938" stroke="#232E34" stroke-width="0.47" stroke-miterlimit="10"/>
<path d="M158.002 142.353C158.002 142.353 185.352 142.729 195.514 139.592C195.514 139.592 194.511 146.367 192.628 147.747C190.747 149.127 177.069 150.537 170.422 150.758C162.894 151.009 158.629 150.256 158.629 150.256L158.002 142.353Z" fill="#232E34" stroke="#232E34" stroke-width="0.47" stroke-miterlimit="10"/>
<path d="M153.109 125.29L155.869 130.936C155.869 130.936 171.3 131.312 173.057 131.438C174.813 131.563 176.695 132.441 178.702 131.438C180.71 130.434 189.367 129.305 190.37 129.305C191.374 129.305 192.628 130.183 192.628 130.183C192.628 130.183 190.37 124.538 189.492 124.036C188.614 123.534 187.736 123.659 187.359 123.659C186.983 123.659 168.666 122.279 153.109 125.29Z" fill="#232E34" stroke="#232E34" stroke-width="0.47" stroke-miterlimit="10"/>
<path d="M124.024 114.021C124.024 114.021 117.463 113.011 114.939 113.895C112.416 114.778 113.677 118.185 117.968 121.339C122.258 124.494 125.791 127.522 130.207 128.027C134.623 128.531 142.194 130.172 142.573 128.784C142.951 127.396 141.563 122.349 136.516 118.69C131.468 115.03 124.024 114.021 124.024 114.021Z" fill="white" stroke="#232E34" stroke-width="0.47" stroke-miterlimit="10"/>
<path d="M176.765 106.828L175.505 107.208C175.505 107.208 173.165 107.279 169.419 107.382C166.209 107.476 161.969 107.594 157.284 107.716C150.816 107.89 143.503 108.069 136.9 108.21C126.804 108.421 118.353 108.529 117.084 108.341C114.904 108.022 112.464 107.232 110.199 105.249C108.925 104.139 107.703 102.649 106.613 100.647C103.581 95.0918 95.8875 88.2815 95.8875 88.2815C107.999 86.8903 136.895 87.3979 140.176 87.5248C140.993 87.553 142.041 87.6799 143.207 87.8914C146.709 88.5118 151.277 89.8889 153.928 91.689C154.398 92.0086 155.154 92.5115 156.104 93.146C158.322 94.6265 161.612 96.8073 164.916 98.9975C166.909 100.314 168.907 101.634 170.679 102.809C174.157 105.103 176.765 106.828 176.765 106.828Z" fill="white" stroke="#232E34" stroke-width="0.47" stroke-miterlimit="10"/>
<path d="M153.928 91.689C154.398 92.0086 155.154 92.5115 156.104 93.146L136.9 108.209C126.804 108.421 118.353 108.529 117.084 108.341C114.904 108.021 112.464 107.232 110.199 105.248L143.207 87.8914C146.709 88.5118 151.277 89.8889 153.928 91.689Z" fill="#232E34" stroke="#232E34" stroke-width="0.47" stroke-miterlimit="10"/>
<path d="M170.679 102.809L169.419 107.382C166.209 107.476 161.969 107.594 157.284 107.716L164.916 98.9975C166.909 100.313 168.907 101.634 170.679 102.809Z" fill="#232E34" stroke="#232E34" stroke-width="0.47" stroke-miterlimit="10"/>
<path d="M149.568 121.515C150.337 122.294 151.079 123.117 151.783 123.989" stroke="#232E34" stroke-width="0.47" stroke-miterlimit="10"/>
<path d="M130.964 110.362C130.964 110.362 140.514 113.17 148.242 120.24" stroke="#232E34" stroke-width="0.47" stroke-miterlimit="10"/>
<path d="M192.132 123.766C193.086 125.564 193.848 127.569 194.305 129.793" stroke="#232E34" stroke-width="0.47" stroke-miterlimit="10"/>
<path d="M177.524 110.866C177.524 110.866 185.984 114.143 191.057 121.942" stroke="#232E34" stroke-width="0.47" stroke-miterlimit="10"/>
<path d="M138.534 144.808C138.534 146.272 137.122 147.458 135.38 147.458C133.637 147.458 132.225 146.272 132.225 144.808C132.225 143.344 133.637 142.158 135.38 142.158C137.122 142.159 138.534 143.345 138.534 144.808Z" fill="white" stroke="#232E34" stroke-width="0.47" stroke-miterlimit="10"/>
<path d="M203.863 140.503C203.597 141.764 202.745 142.652 201.961 142.487C201.177 142.321 200.757 141.164 201.024 139.903C201.291 138.641 202.143 137.753 202.927 137.919C203.711 138.085 204.13 139.241 203.863 140.503Z" fill="white" stroke="#232E34" stroke-width="0.47" stroke-miterlimit="10"/>
<path d="M95.4654 108.585C95.4654 108.585 92.8451 104.171 91.1903 103.895C89.5354 103.619 82.5018 103.344 80.9847 104.309C79.4675 105.274 79.8816 108.446 80.4329 109.274C80.9847 110.101 83.1913 110.515 85.1221 110.377C87.0529 110.239 93.5346 110.791 93.5346 110.791C93.5346 110.791 97.3961 113.549 98.7751 113.273C100.154 112.997 101.947 109.964 100.706 108.308C99.4651 106.654 97.5343 107.068 95.4654 108.585Z" fill="#232E34" stroke="#232E34" stroke-width="0.47" stroke-miterlimit="10"/>
<path d="M95.4653 108.585L100.017 109.55" stroke="#232E34" stroke-width="0.47" stroke-miterlimit="10"/>
<path d="M62.2284 87.7598C62.2284 87.7598 58.9186 88.7252 58.5046 89.6906C58.091 90.6559 57.8151 91.3454 57.8151 91.3454L47.8854 105.826C47.8854 105.826 44.2998 105.55 43.1962 108.585C42.0926 111.619 42.5067 115.756 42.5067 115.756C42.5067 115.756 39.8865 122.238 39.7483 127.065C39.6101 131.892 40.1619 135.477 40.1619 135.477C40.1619 135.477 39.4724 126.651 41.5409 123.893C43.6098 121.134 47.8849 123.203 49.5398 128.168C51.1947 133.133 53.1254 142.373 53.1254 142.373L96.8439 151.338C96.8439 151.338 94.6372 139.753 97.5334 133.133C100.43 126.513 113.945 126.927 116.427 138.925C118.91 150.924 118.082 153.131 118.082 153.131C118.082 153.131 127.322 155.061 155.457 154.648C183.591 154.234 199.037 150.924 203.175 149.821C203.175 149.821 204.14 144.718 204.416 141.684C204.692 138.65 203.588 136.581 203.588 136.581C203.588 136.581 203.313 131.065 202.623 129.134C201.934 127.203 199.865 124.307 199.865 124.307C199.865 124.307 197.796 119.48 194.348 116.446C190.9 113.411 185.246 110.378 183.867 109.688C182.488 108.999 180.695 108.585 178.074 106.792C175.454 104.999 159.18 93.6903 154.078 90.6559C148.975 87.6221 137.942 86.1049 135.735 85.6913C133.528 85.2777 108.152 83.4847 99.326 83.4847C90.4998 83.4847 72.2963 83.8983 62.2284 87.7598Z" stroke="#232E34" stroke-width="0.47" stroke-miterlimit="10"/>
<path d="M189.384 112.885C189.384 112.885 186.608 113.895 187.365 114.904C188.123 115.913 192.286 118.563 194.179 121.843C196.072 125.124 196.45 126.764 197.334 126.764C198.217 126.764 200.127 125.129 199.866 124.306C199.605 123.484 198.217 116.04 189.384 112.885Z" fill="white" stroke="#232E34" stroke-width="0.47" stroke-miterlimit="10"/>
<path d="M50.5489 138.167C50.5202 136.81 50.3811 135.518 50.1541 134.344L48.2882 136.618C48.3686 137.099 48.4203 137.617 48.4316 138.159C48.4334 138.236 48.4316 138.312 48.4316 138.389L50.5503 139.06C50.555 138.765 50.555 138.468 50.5489 138.167Z" fill="#232E34" stroke="#232E34" stroke-width="0.47" stroke-miterlimit="10"/>
<path d="M47.2424 133.996C47.4361 134.202 47.6142 134.486 47.7707 134.829L49.0844 130.897C48.628 129.926 48.0889 129.192 47.5019 128.774L47.2424 133.996Z" fill="#232E34" stroke="#232E34" stroke-width="0.47" stroke-miterlimit="10"/>
<path d="M48.165 140.718C48.0701 141.089 47.9521 141.419 47.8163 141.7L48.8949 146.397C49.4119 145.554 49.8345 144.402 50.1235 143.042L48.165 140.718Z" fill="#232E34" stroke="#232E34" stroke-width="0.47" stroke-miterlimit="10"/>
<path d="M44.9907 135.713L43.0882 133.138C42.809 134.403 42.6473 135.853 42.6337 137.405L44.7604 137.523C44.7834 136.864 44.8638 136.25 44.9907 135.713Z" fill="#232E34" stroke="#232E34" stroke-width="0.47" stroke-miterlimit="10"/>
<path d="M45.6379 134.147C45.793 133.935 45.964 133.781 46.1459 133.694L45.8348 128.474C45.1618 128.706 44.5526 129.361 44.0511 130.331L45.6379 134.147Z" fill="#232E34" stroke="#232E34" stroke-width="0.47" stroke-miterlimit="10"/>
<path d="M46.8908 142.665C46.8246 142.683 46.7573 142.693 46.6887 142.693C46.4946 142.692 46.3061 142.616 46.128 142.478L45.0851 146.976C45.6115 147.581 46.1929 147.921 46.7996 147.924C46.9651 147.924 47.1277 147.897 47.2866 147.848L46.8908 142.665Z" fill="#232E34" stroke="#232E34" stroke-width="0.47" stroke-miterlimit="10"/>
<path d="M44.9752 140.092L42.8719 141.007C43.0891 142.503 43.4453 143.845 43.898 144.942L45.2483 141.067C45.1416 140.772 45.0504 140.444 44.9752 140.092Z" fill="#232E34" stroke="#232E34" stroke-width="0.47" stroke-miterlimit="10"/>
<path d="M175.121 45.8636L166.311 50.4719L155.061 52.0986C155.061 52.0986 151.537 55.4868 156.417 61.7218C161.296 67.9569 164.956 69.9896 166.582 69.9896C168.208 69.9896 175.528 67.4145 176.747 66.6014C177.967 65.7883 186.777 59.2825 186.777 59.2825C186.777 59.2825 190.843 61.9935 196.942 57.5205C203.041 53.048 219.035 39.7653 219.035 39.7653C219.035 39.7653 221.338 38.2745 219.848 35.2928C218.357 32.3111 214.155 29.329 211.173 28.2447C208.192 27.1604 204.261 28.5159 203.177 29.0578C202.092 29.5997 178.509 40.5784 178.509 40.5784C178.509 40.5784 174.307 42.0688 175.121 45.8636Z" fill="white" stroke="#232E34" stroke-width="0.47" stroke-miterlimit="10"/>
<path d="M195.482 55.5234C195.447 56.3793 195.208 57.1102 194.81 57.7174" stroke="#232E34" stroke-width="0.47" stroke-miterlimit="10"/>
<path d="M179.621 40.8904C179.621 40.8904 186.397 41.1137 191.013 46.4745C193.234 49.0539 194.524 51.2544 195.108 53.0837" stroke="#232E34" stroke-width="0.47" stroke-miterlimit="10"/>
<path d="M176.196 45.2836L179.77 44.0179C179.77 44.0179 184.684 44.3159 187.885 47.4428C191.087 50.5697 191.236 54.2926 190.938 55.484L187.587 58.3877" stroke="#232E34" stroke-width="0.47" stroke-miterlimit="10"/>
<path d="M168.602 51.0166C168.602 51.0166 174.575 54.8382 176.568 56.6007C178.006 57.873 177.834 62.4827 177.834 62.4827" stroke="#232E34" stroke-width="0.47" stroke-miterlimit="10"/>
<path d="M155.201 53.6481C154.865 53.948 154.665 54.3705 154.653 54.8203C154.629 55.8049 154.765 57.6812 155.838 59.862C157.423 63.0834 164.428 68.197 165.502 68.6063C166.576 69.0152 167.292 68.3507 167.599 66.6634C167.906 64.9761 166.355 60.3456 164.838 58.9417C164.159 58.3133 159.387 54.9604 157.202 53.5062C156.58 53.0921 155.758 53.1509 155.201 53.6481Z" fill="#232E34" stroke="#232E34" stroke-width="0.47" stroke-miterlimit="10"/>
<path d="M166.749 59.6049L176.027 57.5017L189.017 49.8318C189.017 49.8318 189.971 49.0126 187.885 47.4428C185.8 45.873 184.934 45.5016 184.934 45.5016L171.944 53.1716L175.037 55.2748L164.522 57.6253C164.522 57.6253 166.255 58.9864 166.749 59.6049Z" fill="#232E34"/>
<path d="M219.847 35.2918C218.99 33.5777 217.236 31.8655 215.334 30.5119C214.991 30.4551 214.67 30.4494 214.378 30.5326C213.512 30.7798 188.151 43.7697 188.151 43.7697C191.738 46.1202 194.584 51.6873 194.584 51.6873C194.584 51.6873 219.326 34.9863 219.847 35.2918Z" fill="#232E34"/>
<path d="M130.142 59.5697C128.352 58.8779 127.937 56.3986 127.937 56.3986C127.937 56.3986 128.625 52.1287 131.105 50.3342C133.588 48.5435 135.515 48.4063 136.618 48.4063C137.123 48.4063 137.887 49.0694 138.567 49.7932C139.007 47.4733 138.969 45.0711 138.605 42.3715C132.925 42.5566 128.3 39.8222 118.842 39.4485C110.987 39.1416 103.594 42.1647 100.393 43.6964C100.301 44.4512 100.257 45.2173 100.257 45.9942C100.257 47.3483 100.397 48.6732 100.66 49.9497C101.174 49.6391 101.748 49.3279 102.306 49.0948C103.96 48.4067 107.957 50.612 108.508 51.0265C109.059 51.4373 110.573 54.6084 110.573 54.6084C110.573 54.6084 109.059 57.5022 106.717 58.0535C105.903 58.2457 105.204 58.2866 104.641 58.2608C106.14 60.0886 107.971 61.6391 110.04 62.8122C110.166 62.6567 110.299 62.494 110.435 62.3239C111.675 60.8105 113.743 58.3275 113.743 58.3275C113.743 58.3275 121.736 58.742 122.838 58.742C123.941 58.742 124.903 60.2592 125.317 62.1867C125.51 63.082 125.702 63.7964 125.854 64.3068C125.854 64.3068 129.502 63.2052 132.821 60.1017C132.021 60.0449 131.018 59.9043 130.142 59.5697Z" fill="#232E34" stroke="#232E34" stroke-width="0.47" stroke-miterlimit="10"/>
<path d="M119.6 21.5354C106.091 21.5354 95.1406 32.4864 95.1406 45.9947C95.1406 59.5029 106.092 70.4539 119.6 70.4539C133.109 70.4539 144.059 59.5029 144.059 45.9947C144.059 32.4864 133.108 21.5354 119.6 21.5354ZM132.836 60.1022C130.857 61.9634 128.481 63.4101 125.854 64.3059C123.893 64.9756 121.788 65.338 119.601 65.338C116.123 65.338 112.859 64.4206 110.04 62.8108C107.971 61.6377 106.14 60.0876 104.641 58.2593C102.699 55.891 101.307 53.0569 100.66 49.9488C100.397 48.6723 100.257 47.3473 100.257 45.9933C100.257 45.2164 100.301 44.4503 100.393 43.6954C101.529 34.0971 109.692 26.6485 119.601 26.6485C129.044 26.6485 136.91 33.4198 138.605 42.3705C138.83 43.5436 138.945 44.7534 138.945 45.9928C138.945 47.2952 138.815 48.5679 138.571 49.7965C137.769 53.823 135.715 57.4011 132.836 60.1022Z" fill="#FFAD01" stroke="#232E34" stroke-width="0.47" stroke-miterlimit="10"/>
<path d="M135.929 46.8905C135.929 46.8905 136.382 44.8253 135.209 42.1632C130.836 41.5367 126.37 39.7456 118.842 39.4481C112.973 39.2187 107.363 40.8482 103.566 42.3259C103.088 42.8405 102.477 43.5779 102.168 44.2726C101.617 45.5129 102.306 47.4418 102.306 47.4418L117.877 47.7172L135.929 46.8905Z" fill="white" stroke="#232E34" stroke-width="0.47" stroke-miterlimit="10"/>
<path d="M110.712 41.2406C110.712 41.2406 109.058 41.7919 109.334 45.6501C109.609 49.5084 111.952 54.1938 113.606 55.2959C115.259 56.3986 121.047 56.9494 122.838 55.7095C124.629 54.4692 126.972 45.5124 126.696 43.4454C126.421 41.3783 125.318 41.1029 123.94 40.827C122.562 40.5516 117.188 39.8626 111.952 40.6893C111.952 40.6893 111.538 40.6893 110.712 41.2406Z" fill="#CFCFCF" stroke="#232E34" stroke-width="0.47" stroke-miterlimit="10"/>
<path d="M134 44.1344C134 45.1238 132.982 45.9256 131.726 45.9256C130.47 45.9256 129.452 45.1238 129.452 44.1344C129.452 43.1451 130.47 42.3428 131.726 42.3428C132.982 42.3432 134 43.1451 134 44.1344Z" fill="white" stroke="#232E34" stroke-width="0.47" stroke-miterlimit="10"/>
<path d="M107.798 43.9713C107.929 44.9522 107.026 45.8819 105.781 46.0478C104.536 46.2142 103.421 45.5538 103.29 44.5729C103.159 43.592 104.063 42.6624 105.307 42.4965C106.552 42.3306 107.667 42.9909 107.798 43.9713Z" fill="white" stroke="#232E34" stroke-width="0.47" stroke-miterlimit="10"/>
<path d="M54.9368 21.8837H45.3352V23.7839C36.1947 27.5584 29.7599 36.5566 29.7599 47.0602C29.7599 57.5642 36.1942 66.5619 45.3352 70.3364V72.2366H54.9368C68.8418 72.2366 80.1133 60.9646 80.1133 47.0602C80.1133 33.1557 68.8418 21.8837 54.9368 21.8837Z" fill="#232E34" stroke="#232E34" stroke-width="0.47" stroke-miterlimit="10"/>
<path d="M45.3352 72.2366C59.2398 72.2366 70.5117 60.9647 70.5117 47.0602C70.5117 33.1556 59.2398 21.8837 45.3352 21.8837C31.4306 21.8837 20.1587 33.1556 20.1587 47.0602C20.1587 60.9647 31.4306 72.2366 45.3352 72.2366Z" fill="#919DA3" stroke="#232E34" stroke-width="0.47" stroke-miterlimit="10"/>
<path d="M45.3352 68.7878C57.335 68.7878 67.0628 59.06 67.0628 47.0602C67.0628 35.0603 57.335 25.3325 45.3352 25.3325C33.3353 25.3325 23.6075 35.0603 23.6075 47.0602C23.6075 59.06 33.3353 68.7878 45.3352 68.7878Z" fill="#FFAD01" stroke="#232E34" stroke-width="0.47" stroke-miterlimit="10"/>
<path d="M51.9307 28.8598L49.8519 38.6429C49.7748 39.0034 49.9229 39.3766 50.2284 39.5857C50.383 39.6919 50.563 39.7436 50.7435 39.7436C50.9268 39.7436 51.1106 39.6891 51.268 39.5796L59.4643 33.8353C57.4015 31.6305 54.8273 29.9089 51.9307 28.8598ZM63.6802 40.8698L54.7338 45.3427C54.4024 45.5068 54.2027 45.8579 54.2318 46.2245C54.261 46.6042 54.5181 46.9262 54.8818 47.0324L64.4877 49.8641C64.6231 48.95 64.6903 48.0138 64.6903 47.0611C64.6907 44.8953 64.3364 42.8132 63.6802 40.8698ZM52.5389 53.3365C52.201 53.1819 51.8052 53.243 51.535 53.494C51.3451 53.6711 51.2422 53.9155 51.2422 54.1665C51.2422 54.2826 51.2647 54.3982 51.3098 54.5077L55.0844 63.7823C57.7202 62.2439 59.9597 60.0975 61.6108 57.5392L52.5389 53.3365ZM44.9188 56.6058C44.8318 56.2453 44.5357 55.9751 44.1691 55.9206C44.124 55.914 44.0756 55.9107 44.031 55.9107C43.7057 55.9107 43.4002 56.0846 43.2395 56.3741L38.3416 65.1109C40.5107 65.9541 42.8696 66.4143 45.3343 66.4143C45.9941 66.4143 46.6474 66.3823 47.2909 66.3179L44.9188 56.6058ZM37.6813 51.6727C37.5172 51.3865 37.2145 51.2159 36.8931 51.2159C36.8447 51.2159 36.7934 51.2224 36.745 51.2286L26.859 52.8472C27.7826 55.7951 29.3919 58.4402 31.4993 60.5933L37.6136 52.6865C37.8392 52.3937 37.8678 51.9914 37.6813 51.6727ZM36.7225 42.942L29.295 36.2257C27.6218 38.6969 26.5051 41.5743 26.1254 44.6796L36.1237 44.5315C36.4936 44.5249 36.8221 44.2965 36.957 43.9525C36.9988 43.843 37.0214 43.7306 37.0214 43.6178C37.0214 43.3636 36.9152 43.1192 36.7225 42.942ZM35.2194 30.5589L41.5686 38.2791C41.7458 38.4948 42.0062 38.6138 42.2736 38.6138C42.3639 38.6138 42.4536 38.6011 42.5406 38.5719C42.9044 38.4624 43.1586 38.1376 43.184 37.7579L43.8021 27.7657C40.6709 28.0101 37.7522 28.998 35.2194 30.5589Z" fill="#232E34" stroke="#232E34" stroke-width="0.47" stroke-miterlimit="10"/>
<path d="M45.3352 50.2552C47.0998 50.2552 48.5303 48.8247 48.5303 47.0601C48.5303 45.2955 47.0998 43.8651 45.3352 43.8651C43.5706 43.8651 42.1401 45.2955 42.1401 47.0601C42.1401 48.8247 43.5706 50.2552 45.3352 50.2552Z" fill="#FFAD01" stroke="#232E34" stroke-width="0.47" stroke-miterlimit="10"/>
<path d="M41.014 47.6081C41.014 46.5661 40.1694 45.7216 39.1274 45.7216C38.0854 45.7216 37.2408 46.5661 37.2408 47.6081C37.2408 48.6501 38.0854 49.4947 39.1274 49.4947C40.1694 49.4947 41.014 48.6501 41.014 47.6081Z" fill="#232E34" stroke="#232E34" stroke-width="0.47" stroke-miterlimit="10"/>
<path d="M44.757 41.7651C44.757 40.7231 43.9125 39.8785 42.8705 39.8785C41.8285 39.8785 40.9839 40.7231 40.9839 41.7651C40.9839 42.8071 41.8285 43.6517 42.8705 43.6517C43.9125 43.6522 44.757 42.8071 44.757 41.7651Z" fill="#232E34" stroke="#232E34" stroke-width="0.47" stroke-miterlimit="10"/>
<path d="M52.1826 43.1347C52.1826 42.0927 51.338 41.2481 50.296 41.2481C49.254 41.2481 48.4094 42.0927 48.4094 43.1347C48.4094 44.1767 49.254 45.0213 50.296 45.0213C51.3375 45.0213 52.1826 44.1767 52.1826 43.1347Z" fill="#232E34" stroke="#232E34" stroke-width="0.47" stroke-miterlimit="10"/>
<path d="M52.4561 50.0729C52.4561 49.0309 51.6116 48.1863 50.5696 48.1863C49.5276 48.1863 48.683 49.0309 48.683 50.0729C48.683 51.1148 49.5276 51.9594 50.5696 51.9594C51.6116 51.9594 52.4561 51.1148 52.4561 50.0729Z" fill="#232E34" stroke="#232E34" stroke-width="0.47" stroke-miterlimit="10"/>
<path d="M46.1572 52.812C46.1572 51.77 45.3126 50.9254 44.2706 50.9254C43.2286 50.9254 42.384 51.77 42.384 52.812C42.384 53.854 43.2286 54.6986 44.2706 54.6986C45.3121 54.6986 46.1572 53.8535 46.1572 52.812Z" fill="#232E34" stroke="#232E34" stroke-width="0.47" stroke-miterlimit="10"/>
</svg>
