<svg width="14" height="17" viewBox="0 0 14 17" fill="none" xmlns="http://www.w3.org/2000/svg">
<path d="M6.99998 15.125C8.69442 13.5694 9.95137 12.1562 10.7708 10.8854C11.5903 9.61454 12 8.48607 12 7.49996C12 5.98607 11.5173 4.74649 10.5521 3.78121C9.58679 2.81593 8.40276 2.33329 6.99998 2.33329C5.5972 2.33329 4.41317 2.81593 3.4479 3.78121C2.48262 4.74649 1.99998 5.98607 1.99998 7.49996C1.99998 8.48607 2.4097 9.61454 3.22915 10.8854C4.04859 12.1562 5.30553 13.5694 6.99998 15.125ZM6.99998 16.7708C6.80553 16.7708 6.61109 16.7361 6.41665 16.6666C6.2222 16.5972 6.04859 16.493 5.89581 16.3541C4.99304 15.5208 4.19442 14.7083 3.49998 13.9166C2.80554 13.125 2.22567 12.3576 1.7604 11.6145C1.29512 10.8715 0.940952 10.1562 0.697896 9.46871C0.454841 8.78121 0.333313 8.12496 0.333313 7.49996C0.333313 5.41663 1.00345 3.7569 2.34373 2.52079C3.68401 1.28468 5.23609 0.666626 6.99998 0.666626C8.76387 0.666626 10.316 1.28468 11.6562 2.52079C12.9965 3.7569 13.6666 5.41663 13.6666 7.49996C13.6666 8.12496 13.5451 8.78121 13.3021 9.46871C13.059 10.1562 12.7048 10.8715 12.2396 11.6145C11.7743 12.3576 11.1944 13.125 10.5 13.9166C9.80554 14.7083 9.00692 15.5208 8.10415 16.3541C7.95137 16.493 7.77776 16.5972 7.58331 16.6666C7.38887 16.7361 7.19442 16.7708 6.99998 16.7708ZM6.99998 8.99996C7.45831 8.99996 7.85067 8.83677 8.17706 8.51038C8.50345 8.18399 8.66665 7.79163 8.66665 7.33329C8.66665 6.87496 8.50345 6.4826 8.17706 6.15621C7.85067 5.82982 7.45831 5.66663 6.99998 5.66663C6.54165 5.66663 6.14929 5.82982 5.8229 6.15621C5.49651 6.4826 5.33331 6.87496 5.33331 7.33329C5.33331 7.79163 5.49651 8.18399 5.8229 8.51038C6.14929 8.83677 6.54165 8.99996 6.99998 8.99996Z" fill="#232E34"/>
</svg>
