<svg width="28" height="28" viewBox="0 0 28 28" fill="none" xmlns="http://www.w3.org/2000/svg">
<path d="M14 16C12.8 16 11.6722 16.2611 10.6167 16.7833C9.56112 17.3055 8.71112 18.0666 8.06667 19.0666C7.82223 19.4222 7.78889 19.7777 7.96667 20.1333C8.14445 20.4888 8.43334 20.6666 8.83334 20.6666C9.01112 20.6666 9.17223 20.6277 9.31667 20.55C9.46112 20.4722 9.58889 20.3555 9.7 20.2C10.2111 19.5111 10.8444 18.9722 11.6 18.5833C12.3556 18.1944 13.1556 18 14 18C14.8444 18 15.6444 18.1944 16.4 18.5833C17.1556 18.9722 17.7889 19.5111 18.3 20.2C18.3889 20.3555 18.5056 20.4722 18.65 20.55C18.7944 20.6277 18.9556 20.6666 19.1333 20.6666C19.5333 20.6666 19.8222 20.4833 20 20.1166C20.1778 19.75 20.1444 19.3777 19.9 19C19.2556 18.0222 18.4056 17.2777 17.35 16.7666C16.2944 16.2555 15.1778 16 14 16ZM18.6667 12.6666C19.2222 12.6666 19.6944 12.4722 20.0833 12.0833C20.4722 11.6944 20.6667 11.2222 20.6667 10.6666C20.6667 10.1111 20.4722 9.63885 20.0833 9.24996C19.6944 8.86107 19.2222 8.66663 18.6667 8.66663C18.1111 8.66663 17.6389 8.86107 17.25 9.24996C16.8611 9.63885 16.6667 10.1111 16.6667 10.6666C16.6667 11.2222 16.8611 11.6944 17.25 12.0833C17.6389 12.4722 18.1111 12.6666 18.6667 12.6666ZM9.33334 12.6666C9.88889 12.6666 10.3611 12.4722 10.75 12.0833C11.1389 11.6944 11.3333 11.2222 11.3333 10.6666C11.3333 10.1111 11.1389 9.63885 10.75 9.24996C10.3611 8.86107 9.88889 8.66663 9.33334 8.66663C8.77778 8.66663 8.30556 8.86107 7.91667 9.24996C7.52778 9.63885 7.33334 10.1111 7.33334 10.6666C7.33334 11.2222 7.52778 11.6944 7.91667 12.0833C8.30556 12.4722 8.77778 12.6666 9.33334 12.6666ZM14 27.3333C12.1556 27.3333 10.4222 26.9833 8.8 26.2833C7.17778 25.5833 5.76667 24.6333 4.56667 23.4333C3.36667 22.2333 2.41667 20.8222 1.71667 19.2C1.01667 17.5777 0.666672 15.8444 0.666672 14C0.666672 12.1555 1.01667 10.4222 1.71667 8.79996C2.41667 7.17774 3.36667 5.76663 4.56667 4.56663C5.76667 3.36663 7.17778 2.41663 8.8 1.71663C10.4222 1.01663 12.1556 0.666626 14 0.666626C15.8444 0.666626 17.5778 1.01663 19.2 1.71663C20.8222 2.41663 22.2333 3.36663 23.4333 4.56663C24.6333 5.76663 25.5833 7.17774 26.2833 8.79996C26.9833 10.4222 27.3333 12.1555 27.3333 14C27.3333 15.8444 26.9833 17.5777 26.2833 19.2C25.5833 20.8222 24.6333 22.2333 23.4333 23.4333C22.2333 24.6333 20.8222 25.5833 19.2 26.2833C17.5778 26.9833 15.8444 27.3333 14 27.3333ZM14 24.6666C16.9778 24.6666 19.5 23.6333 21.5667 21.5666C23.6333 19.5 24.6667 16.9777 24.6667 14C24.6667 11.0222 23.6333 8.49996 21.5667 6.43329C19.5 4.36663 16.9778 3.33329 14 3.33329C11.0222 3.33329 8.50001 4.36663 6.43334 6.43329C4.36667 8.49996 3.33334 11.0222 3.33334 14C3.33334 16.9777 4.36667 19.5 6.43334 21.5666C8.50001 23.6333 11.0222 24.6666 14 24.6666Z" fill="#232E34"/>
</svg>
