<svg width="10" height="6" viewBox="0 0 10 6" fill="none" xmlns="http://www.w3.org/2000/svg">
<path d="M4.99998 4.02083L8.24998 0.770833C8.40276 0.618056 8.5972 0.541667 8.83331 0.541667C9.06942 0.541667 9.26387 0.618056 9.41665 0.770833C9.56942 0.923611 9.64581 1.11806 9.64581 1.35417C9.64581 1.59028 9.56942 1.78472 9.41665 1.9375L5.58331 5.77083C5.49998 5.85417 5.4097 5.91319 5.31248 5.94792C5.21526 5.98264 5.11109 6 4.99998 6C4.88887 6 4.7847 5.98264 4.68748 5.94792C4.59026 5.91319 4.49998 5.85417 4.41665 5.77083L0.583313 1.9375C0.430535 1.78472 0.354146 1.59028 0.354146 1.35417C0.354146 1.11806 0.430535 0.923611 0.583313 0.770833C0.736091 0.618056 0.930535 0.541667 1.16665 0.541667C1.40276 0.541667 1.5972 0.618056 1.74998 0.770833L4.99998 4.02083Z" fill="#232E34" fill-opacity="0.5"/>
</svg>
