<svg width="22" height="8" viewBox="0 0 22 8" fill="none" xmlns="http://www.w3.org/2000/svg">
<path d="M2.99992 7.66671C2.26659 7.66671 1.63881 7.4056 1.11659 6.88337C0.594363 6.36115 0.333252 5.73337 0.333252 5.00004C0.333252 4.26671 0.594363 3.63893 1.11659 3.11671C1.63881 2.59449 2.26659 2.33337 2.99992 2.33337C3.73325 2.33337 4.36103 2.59449 4.88325 3.11671C5.40547 3.63893 5.66659 4.26671 5.66659 5.00004C5.66659 5.73337 5.40547 6.36115 4.88325 6.88337C4.36103 7.4056 3.73325 7.66671 2.99992 7.66671ZM10.9999 6.66671C10.2666 6.66671 9.63881 6.4056 9.11659 5.88337C8.59436 5.36115 8.33325 4.73337 8.33325 4.00004C8.33325 3.26671 8.59436 2.63893 9.11659 2.11671C9.63881 1.59449 10.2666 1.33337 10.9999 1.33337C11.7333 1.33337 12.361 1.59449 12.8833 2.11671C13.4055 2.63893 13.6666 3.26671 13.6666 4.00004C13.6666 4.73337 13.4055 5.36115 12.8833 5.88337C12.361 6.4056 11.7333 6.66671 10.9999 6.66671ZM18.9999 5.66671C18.2666 5.66671 17.6388 5.4056 17.1166 4.88337C16.5944 4.36115 16.3333 3.73337 16.3333 3.00004C16.3333 2.26671 16.5944 1.63893 17.1166 1.11671C17.6388 0.594485 18.2666 0.333374 18.9999 0.333374C19.7333 0.333374 20.361 0.594485 20.8833 1.11671C21.4055 1.63893 21.6666 2.26671 21.6666 3.00004C21.6666 3.73337 21.4055 4.36115 20.8833 4.88337C20.361 5.4056 19.7333 5.66671 18.9999 5.66671Z" fill="#FFAD01"/>
</svg>
