<svg width="14" height="14" viewBox="0 0 14 14" fill="none" xmlns="http://www.w3.org/2000/svg">
<path d="M0.5625 13.4453C0.171875 13.0625 0.1875 12.3984 0.554688 12.0312L5.21094 7.36719L0.554688 2.71094C0.1875 2.34375 0.179688 1.6875 0.5625 1.29688C0.945312 0.90625 1.60938 0.921875 1.98438 1.28906L6.64062 5.94531L11.2891 1.28906C11.6719 0.90625 12.3203 0.914062 12.7109 1.29688C13.1016 1.6875 13.1016 2.33594 12.7188 2.71875L8.07031 7.36719L12.7188 12.0234C13.1016 12.4062 13.0938 13.0547 12.7109 13.4453C12.3281 13.8359 11.6719 13.8359 11.2891 13.4531L6.64062 8.79688L1.98438 13.4531C1.60938 13.8203 0.953125 13.8359 0.5625 13.4453Z" fill="#232E34"/>
</svg>
